<svg width="100" height="100" xmlns="http://www.w3.org/2000/svg">
 <g>
  <title>Layer 1</title>
  <path transform="rotate(-90 50 50)" fill="#ffffff" id="svg_1" d="m40.617001,36.368999l-16.609001,-16.608999c7.003,-6.027 16.108002,-9.679 26.073002,-9.679c20.910995,0 38.063995,16.048999 39.837997,36.500001l-23.545998,0c-1.608002,-7.523003 -8.288002,-13.167 -16.292,-13.167c-3.518002,0 -6.775002,1.094997 -9.464001,2.954998zm-7.202999,13.712002c0,-3.152 0.891998,-6.09 2.410999,-8.604l-16.712,-16.710001c-5.644001,6.896 -9.032001,15.707998 -9.032001,25.314001c0,20.910995 16.048999,38.062996 36.500001,39.837997l0,-23.545998c-7.523003,-1.609001 -13.167,-8.289001 -13.167,-16.292zm20.167,16.292l0,23.545998c19.296997,-1.673996 34.664001,-17.042 36.337997,-36.337997l-23.545998,0c-1.367004,6.393997 -6.396999,11.424995 -12.792,12.792z"/>
 </g>
</svg>
